<svg width="55" height="56" viewBox="0 0 55 56" fill="none" xmlns="http://www.w3.org/2000/svg">
<g clip-path="url(#clip0_201_12467)">
<path d="M12.1007 19.5548L35.7552 43.2093C36.7677 44.2218 36.7677 45.8632 35.7552 46.8756L29.1542 53.4767C28.1418 54.4891 26.5003 54.4891 25.4879 53.4767L1.83335 29.8221C0.820934 28.8097 0.820934 27.1683 1.83335 26.1559L8.43441 19.5548C9.44683 18.5424 11.0883 18.5424 12.1007 19.5548Z" fill="#E4A835"/>
<path d="M21.5299 10.1271L45.1844 33.7816C46.1969 34.794 46.1969 36.4355 45.1844 37.4479L40.2491 42.3833C39.2366 43.3957 37.5952 43.3957 36.5828 42.3833L12.9282 18.7287C11.9158 17.7163 11.9158 16.0748 12.9282 15.0624L17.8636 10.1271C18.876 9.11464 20.5175 9.11464 21.5299 10.1271Z" fill="#2ABB2A"/>
<path d="M29.1295 2.52318L52.784 26.1777C53.7965 27.1901 53.7965 28.8316 52.784 29.844L49.6818 32.9462C48.6694 33.9587 47.0279 33.9587 46.0155 32.9462L22.361 9.29169C21.3486 8.27928 21.3486 6.63783 22.361 5.62541L25.4632 2.52318C26.4756 1.51076 28.1171 1.51076 29.1295 2.52318Z" fill="#284DAF"/>
</g>
<defs>
<clipPath id="clip0_201_12467">
<rect width="54.6198" height="54.6171" fill="white" transform="matrix(1.19249e-08 -1 -1 -1.19249e-08 54.6172 55.3098)"/>
</clipPath>
</defs>
</svg>
