<svg width="52" height="44" viewBox="0 0 52 44" fill="none" xmlns="http://www.w3.org/2000/svg">
<g clip-path="url(#clip0_133_26972)">
<path fill-rule="evenodd" clip-rule="evenodd" d="M41.1225 36.7401L39.1839 29.5081L39.1973 29.4855L39.2662 29.3692C39.3086 29.2972 39.3501 29.2246 39.3912 29.1518L39.448 29.0503C39.4843 28.9848 39.5203 28.9188 39.5556 28.8525L39.6258 28.7192C39.66 28.6537 39.6937 28.588 39.7269 28.522C39.7521 28.472 39.7768 28.4223 39.8016 28.3721C39.8313 28.3113 39.8608 28.2501 39.89 28.1888C39.9157 28.1341 39.9415 28.0791 39.967 28.0239C39.9912 27.9711 40.0155 27.9177 40.0391 27.8646C40.0668 27.8028 40.0936 27.741 40.1204 27.6789C40.1436 27.625 40.1665 27.5708 40.1891 27.5167C40.2141 27.4562 40.2388 27.3954 40.2635 27.3347C40.2848 27.2818 40.3056 27.2287 40.3262 27.1753C40.3527 27.1075 40.3785 27.0397 40.404 26.9713L40.4516 26.8409C40.4795 26.7638 40.5069 26.6862 40.5335 26.6084L40.5706 26.4998C40.5984 26.4167 40.6253 26.3333 40.6518 26.2494L40.6855 26.1414C40.7129 26.0528 40.7392 25.9639 40.7647 25.8745L40.7894 25.7885C40.816 25.6949 40.8413 25.6005 40.866 25.5063L40.8881 25.4203C40.9126 25.3246 40.936 25.2281 40.9589 25.1316L40.9762 25.0567C40.9991 24.9565 41.021 24.856 41.042 24.755L41.0573 24.6806C41.0786 24.5754 41.0988 24.4702 41.1178 24.3645L41.1262 24.3175C41.1462 24.2049 41.1649 24.0918 41.1825 23.9782L41.188 23.9417C41.2054 23.8273 41.2214 23.7124 41.2362 23.5972L41.2411 23.5567C41.2556 23.4423 41.2688 23.3271 41.2806 23.212L41.2848 23.1696C41.2967 23.0516 41.3074 22.9332 41.3164 22.8144L41.318 22.7923C41.3269 22.6692 41.3351 22.5461 41.3414 22.4223L41.3424 22.4026C41.3485 22.2782 41.3535 22.1535 41.3569 22.0286V22.0207L41.3572 22.0155C41.3603 21.8856 41.3622 21.7552 41.3622 21.6245C41.3622 13.1439 34.4844 6.26953 26.0001 6.26953C17.5157 6.26953 10.6377 13.1439 10.6377 21.6242C10.6377 30.1047 17.5154 36.9794 25.9995 36.9794C27.879 36.9794 29.679 36.6417 31.3435 36.024C31.4161 35.997 31.4882 35.9696 31.5605 35.9415L31.7066 35.8839C31.7752 35.8563 31.8439 35.8284 31.9123 35.8L32.048 35.7424C32.1135 35.7143 32.1785 35.6859 32.2435 35.6569C32.2966 35.6333 32.3498 35.6093 32.4027 35.5852C32.464 35.557 32.525 35.5284 32.586 35.4997L32.741 35.425C32.797 35.3977 32.8528 35.3698 32.9083 35.3419C32.9646 35.3135 33.0209 35.2849 33.0769 35.2557C33.1301 35.2281 33.1832 35.1999 33.2361 35.1718C33.2948 35.1402 33.3534 35.1084 33.4118 35.0763L33.5584 34.9943C33.6197 34.9596 33.6807 34.9246 33.7415 34.8891C33.7841 34.8644 33.8265 34.8391 33.8686 34.8139L33.8875 34.8026L41.1225 36.7404V36.7401Z" fill="#0F5B99"/>
<path fill-rule="evenodd" clip-rule="evenodd" d="M8.48978 27.6392C10.732 34.1628 16.5201 39.0379 23.5535 39.9664C24.0142 39.0855 24.9368 38.4844 26.0002 38.4844C27.5242 38.4844 28.7594 39.7192 28.7594 41.2423C28.7594 42.7654 27.524 44.0003 26.0002 44.0003C24.8121 44.0003 23.7995 43.2498 23.411 42.1971C15.2023 41.1753 8.48346 35.3585 6.14599 27.6395H3.32444C1.87355 27.6395 0.686523 26.453 0.686523 25.0028V18.2462C0.686523 16.796 1.87355 15.6097 3.32444 15.6097H5.21547C7.82208 6.59327 16.1404 0 26.0002 0C35.86 0 44.1783 6.59327 46.7852 15.6092H48.6762C50.1271 15.6092 51.3141 16.7957 51.3141 18.2457V25.0022C51.3141 26.4525 50.1271 27.639 48.6762 27.639H43.5106C44.1589 25.753 44.5117 23.7298 44.5117 21.624C44.5117 11.405 36.2238 3.12084 26.0002 3.12084C15.7766 3.12084 7.48875 11.4052 7.48875 21.6242C7.48875 23.73 7.84154 25.7533 8.48978 27.6392Z" fill="#0F5B99"/>
<path fill-rule="evenodd" clip-rule="evenodd" d="M18.9524 18.9629C20.4228 18.9629 21.6148 20.1544 21.6148 21.6241C21.6148 23.0938 20.4228 24.2853 18.9524 24.2853C17.4821 24.2853 16.29 23.0938 16.29 21.6241C16.29 20.1544 17.4821 18.9629 18.9524 18.9629ZM33.0473 18.9629C34.5176 18.9629 35.7096 20.1544 35.7096 21.6241C35.7096 23.0938 34.5176 24.2853 33.0473 24.2853C31.5769 24.2853 30.3849 23.0938 30.3849 21.6241C30.3849 20.1544 31.5769 18.9629 33.0473 18.9629ZM25.9996 18.9629C27.4699 18.9629 28.662 20.1544 28.662 21.6241C28.662 23.0938 27.4699 24.2853 25.9996 24.2853C24.5292 24.2853 23.3372 23.0938 23.3372 21.6241C23.3372 20.1544 24.5292 18.9629 25.9996 18.9629Z" fill="white"/>
</g>
<defs>
<clipPath id="clip0_133_26972">
<rect width="50.6276" height="44" fill="white" transform="translate(0.686035)"/>
</clipPath>
</defs>
</svg>
