<svg width="61" height="44" viewBox="0 0 61 44" fill="none" xmlns="http://www.w3.org/2000/svg">
<g clip-path="url(#clip0_133_26938)">
<path d="M57.1932 31.4545C57.2225 31.4545 57.246 31.4526 57.2753 31.4526H59.5052C59.8687 31.4526 60.156 31.1218 60.0954 30.7615C59.5756 27.6647 55.6356 26.3594 54.1405 25.9735C53.7692 25.877 53.4604 25.6152 53.2982 25.2667L50.8767 20.1026C51.1719 20.2739 51.51 20.3802 51.8754 20.3802H53.1145C53.3041 20.3802 53.4565 20.2247 53.4565 20.0357V15.8501C53.4565 15.6591 53.3041 15.5056 53.1145 15.5056H51.8754C51.2833 15.5056 50.7575 15.7674 50.3901 16.1789C50.308 15.8363 50.2064 15.4701 50.0755 15.0626C49.8566 14.3912 49.0631 14.4641 48.0625 14.72C46.7042 15.0685 45.3205 15.3343 43.931 15.5134L43.3759 15.5843C43.1942 14.97 42.7095 14.4621 42.045 14.2987L38.4842 13.4206C37.8588 12.6489 37.0712 11.694 35.9025 10.3749C35.7442 10.1958 35.0406 9.30196 33.825 8.98696C32.7423 8.70739 31.3488 8.31561 30.2348 8.97711C29.1209 9.63862 28.3938 10.7588 28.2355 12.072L27.1997 21.4C27.1333 22.0084 27.3248 22.6167 27.7294 23.0715C28.1339 23.5283 28.7124 23.7882 29.3202 23.7882H38.1637L37.8412 31.6809C37.7923 32.8681 38.7089 33.8682 39.8855 33.9175C39.9148 33.9175 39.9441 33.9175 39.9734 33.9175C41.1128 33.9175 42.0567 33.0118 42.1036 31.8562L42.518 21.7249C42.5414 21.1402 42.3284 20.5712 41.9258 20.1479C41.5232 19.7246 40.9662 19.4864 40.3858 19.4864H34.8725L35.2439 15.3402C35.6855 15.8796 35.9748 16.2438 35.9826 16.2517C36.2386 16.5746 36.5924 16.803 36.9911 16.9014L41.1597 17.9311C41.3082 17.9685 41.4568 17.9842 41.6033 17.9842C42.0333 17.9842 42.4398 17.8307 42.7642 17.5688L44.531 17.3424C44.5837 17.6043 44.6424 17.8917 44.6873 18.2047C44.8847 19.6104 45.3166 20.203 46.1628 20.3428C46.8117 22.7231 47.5055 26.3535 47.9608 28.6746C48.1778 29.7811 47.8514 30.923 47.0833 31.7439L44.6678 34.325C44.2417 34.7818 43.6456 35.0397 43.0241 35.0397H35.9181C35.1266 35.0397 34.4895 34.3841 34.5071 33.5887L34.6048 28.8538L35.3748 28.8341C35.8438 28.8223 36.2445 28.4955 36.3539 28.0368L36.7174 26.4992C36.8718 25.8455 36.3793 25.2175 35.7129 25.2175H15.5772C14.6919 25.2175 14.3498 26.3791 15.0925 26.8653L18.5165 29.1019C16.4781 31.2459 16.1224 34.39 16.0736 35.7917C16.0599 36.1855 16.3726 36.5103 16.7635 36.5103H18.2195C18.1921 36.7525 18.1765 37.0006 18.1765 37.2506C18.1765 40.9735 21.1842 44.0035 24.8799 44.0035C28.3372 44.0035 31.1905 41.3515 31.5443 37.9613C31.8374 38.0125 32.1345 38.0479 32.4354 38.0479H45.1094C45.8775 38.0479 46.5791 37.6955 47.0755 37.1246C47.0755 37.1659 47.0697 37.2073 47.0697 37.2486C47.0697 41.2275 50.5054 44.4149 54.5431 43.9582C57.4766 43.6274 59.9176 41.2964 60.3866 38.361C60.8518 35.4472 59.4466 32.811 57.1991 31.4565L57.1932 31.4545ZM24.874 41.133C22.7477 41.133 21.0162 39.3906 21.0162 37.2467C21.0162 36.9927 21.0435 36.7466 21.0904 36.5064H23.3887C23.2793 36.7308 23.2109 36.9789 23.2109 37.2467C23.2109 38.172 23.9555 38.9221 24.874 38.9221C25.7926 38.9221 26.5372 38.172 26.5372 37.2467C26.5372 36.9809 26.4688 36.7308 26.3594 36.5064H28.646L28.6753 36.6718C28.7026 36.8608 28.7319 37.0498 28.7319 37.2467C28.7319 39.3887 27.0023 41.133 24.874 41.133ZM53.7672 41.133C51.6409 41.133 49.9093 39.3906 49.9093 37.2467C49.9093 35.1027 51.6389 33.3603 53.7672 33.3603C55.8955 33.3603 57.6251 35.1027 57.6251 37.2467C57.6251 39.3906 55.8936 41.133 53.7672 41.133Z" fill="#0F5B99"/>
<path d="M53.7672 35.5732C52.8486 35.5732 52.104 36.3233 52.104 37.2487C52.104 38.174 52.8486 38.9241 53.7672 38.9241C54.6857 38.9241 55.4303 38.174 55.4303 37.2487C55.4303 36.3233 54.6857 35.5732 53.7672 35.5732Z" fill="#203A72"/>
<path d="M23.8404 13.2949H15.7514C14.9893 13.2949 14.3716 13.9172 14.3716 14.6849V22.3926C14.3716 23.1602 14.9893 23.7826 15.7514 23.7826H23.8404C24.6025 23.7826 25.2202 23.1602 25.2202 22.3926V14.6849C25.2202 13.9172 24.6025 13.2949 23.8404 13.2949Z" fill="#0F5B99"/>
<path d="M35.0818 3.23238C34.8239 3.17725 34.7027 3.20875 34.6792 3.2245C34.6695 3.24419 34.6363 3.4135 34.7711 3.73835C35.0545 4.42348 35.8558 5.27989 36.9443 5.53977C38.1658 5.83115 38.9847 5.96109 39.4967 6.02212C39.399 5.32714 39.1215 4.45104 38.5958 3.20875C38.0935 3.3505 36.8349 3.60447 35.0799 3.23238H35.0818Z" fill="#0F5B99"/>
<path d="M31.0619 7.49898L38.08 9.10156C38.4982 9.19803 38.9243 8.96965 39.0806 8.56605C39.2858 8.03842 39.4324 7.59742 39.5028 7.13279C38.9516 7.07569 38.0566 6.93788 36.6944 6.61303C34.742 6.14644 33.3426 4.2072 33.6084 3.00625C33.7316 2.44712 34.2495 1.93721 35.3048 2.15574C36.6416 2.44121 37.6305 2.30537 38.1132 2.19709C36.1765 -1.11241 31.4176 -0.334749 29.946 2.24631C28.8867 4.10285 30.0183 6.30197 30.5127 7.10719C30.6359 7.30801 30.8333 7.44779 31.06 7.50095L31.0619 7.49898Z" fill="#0F5B99"/>
<path d="M10.1716 22.0406C10.8986 22.0406 11.4888 21.446 11.4888 20.7137C11.4888 19.9813 10.8986 19.3867 10.1716 19.3867H1.84604C1.11902 19.3867 0.528809 19.9813 0.528809 20.7137C0.528809 21.446 1.11902 22.0406 1.84604 22.0406H10.1716Z" fill="#14A0DE"/>
<path d="M11.0901 27.8443C11.8171 27.8443 12.4073 27.2498 12.4073 26.5174C12.4073 25.785 11.8171 25.1904 11.0901 25.1904H2.76255C2.03553 25.1904 1.44531 25.785 1.44531 26.5174C1.44531 27.2498 2.03553 27.8443 2.76255 27.8443H11.0881H11.0901Z" fill="#14A0DE"/>
<path d="M12.0066 30.9941H3.67905C2.95203 30.9941 2.36182 31.5887 2.36182 32.3211C2.36182 33.0535 2.95203 33.648 3.67905 33.648H12.0066C12.7336 33.648 13.3238 33.0535 13.3238 32.3211C13.3238 31.5887 12.7336 30.9941 12.0066 30.9941Z" fill="#14A0DE"/>
</g>
<defs>
<clipPath id="clip0_133_26938">
<rect width="59.942" height="44" fill="white" transform="translate(0.528809)"/>
</clipPath>
</defs>
</svg>
