<svg width="39" height="44" viewBox="0 0 39 44" fill="none" xmlns="http://www.w3.org/2000/svg">
<g clip-path="url(#clip0_133_26951)">
<path d="M1.96611 20.02L4.34542 17.2547C5.27725 16.1702 6.63022 15.5489 8.05614 15.5489H23.6966L22.6818 20.6114C22.4215 21.9107 23.8922 22.8486 24.9517 22.0607L37.9923 12.3388C38.7683 11.7591 38.7683 10.593 37.9923 10.0149L24.9484 0.289718C23.8889 -0.499894 22.4199 0.437978 22.6785 1.73734L23.6932 6.79985H7.75935C3.71039 6.79985 0.425781 10.0982 0.425781 14.1679V19.4453C0.425781 20.2616 1.43554 20.638 1.96611 20.02Z" fill="#0F5B99"/>
<path d="M37.402 22.4487C36.5862 22.1439 35.6892 22.3771 35.1189 23.0368L32.8722 25.6488C32.2289 26.3985 31.2937 26.8266 30.3072 26.8266H17.0527L17.7126 23.5399C17.9265 22.4704 17.4739 21.4026 16.557 20.8179C15.6401 20.2348 14.486 20.2765 13.6156 20.9278L1.29955 30.1083C0.63301 30.6064 0.25 31.3693 0.25 32.2056C0.25 33.0419 0.63301 33.8048 1.29955 34.3029L13.6139 43.4834C14.0765 43.8282 14.617 44.0015 15.1609 44.0015C15.6417 44.0015 16.1259 43.8649 16.5553 43.5917C17.4705 43.0069 17.9249 41.9391 17.711 40.8713L17.0511 37.5813H30.5841C35.0857 37.5813 38.7483 33.9031 38.7483 29.3787V24.3961C38.7483 23.5199 38.2194 22.7536 37.4003 22.4487H37.402ZM36.2696 29.3787C36.2696 32.5271 33.7195 35.0892 30.5841 35.0892H15.5373C15.1658 35.0892 14.8143 35.2574 14.5789 35.5456C14.3435 35.8355 14.2489 36.2153 14.3236 36.5801L15.2819 41.3611C15.2885 41.3944 15.2985 41.4427 15.2289 41.4877C15.1592 41.531 15.1211 41.5027 15.0929 41.4827L2.77687 32.3022C2.77687 32.3022 2.71221 32.2539 2.71553 32.2056C2.71884 32.1573 2.77687 32.1073 2.77687 32.109L15.0912 22.9285C15.1194 22.9085 15.1576 22.8802 15.2272 22.9235C15.2968 22.9685 15.2885 23.0151 15.2803 23.0501L14.3219 27.8278C14.2489 28.1942 14.3418 28.5741 14.5772 28.8622C14.8127 29.1504 15.1642 29.3187 15.5356 29.3187H30.3039C32.0117 29.3187 33.6299 28.5741 34.7441 27.278L36.2662 25.5072V29.3787H36.2696Z" fill="#0F5B99"/>
</g>
<defs>
<clipPath id="clip0_133_26951">
<rect width="38.5" height="44" fill="white" transform="translate(0.25)"/>
</clipPath>
</defs>
</svg>
