<svg width="57" height="44" viewBox="0 0 57 44" fill="none" xmlns="http://www.w3.org/2000/svg">
<g clip-path="url(#clip0_133_33341)">
<path d="M10.2053 43.7812V40.869C10.2053 39.7524 9.53122 39.0245 8.37579 39.0245C7.79818 39.0245 7.17233 39.2187 6.73902 39.8497C6.40219 39.3157 5.92085 39.0245 5.19873 39.0245C4.71718 39.0245 4.23606 39.17 3.85077 39.704V39.1216H2.83984V43.7812H3.85077V41.2086C3.85077 40.3837 4.28408 39.9952 4.95817 39.9952C5.63183 39.9952 5.96909 40.4321 5.96909 41.2086V43.7812H6.98002V41.2086C6.98002 40.3837 7.46114 39.9952 8.08699 39.9952C8.76108 39.9952 9.09791 40.4321 9.09791 41.2086V43.7812H10.2053ZM25.1764 39.1216H23.5398V37.714H22.5289V39.1216H21.6143V40.0436H22.5287V42.1795C22.5287 43.2474 22.962 43.8782 24.1174 43.8782C24.5507 43.8782 25.0319 43.7327 25.3691 43.5386L25.0801 42.6648C24.7913 42.8589 24.4545 42.9076 24.2137 42.9076C23.7324 42.9076 23.5398 42.6164 23.5398 42.1308V40.0436H25.1764V39.1216ZM33.7453 39.0243C33.1677 39.0243 32.7826 39.3157 32.5419 39.704V39.1216H31.5309V43.7812H32.5419V41.1602C32.5419 40.3837 32.8787 39.9468 33.5045 39.9468C33.6971 39.9468 33.9378 39.9954 34.1304 40.0438L34.4192 39.0732C34.2267 39.0245 33.9378 39.0245 33.7453 39.0245M20.7959 39.5101C20.3143 39.1702 19.6404 39.0247 18.9183 39.0247C17.7631 39.0247 16.993 39.6071 16.993 40.5294C16.993 41.3061 17.5706 41.7428 18.5815 41.8885L19.0628 41.9371C19.5924 42.034 19.8812 42.1797 19.8812 42.4225C19.8812 42.7621 19.4961 43.0049 18.822 43.0049C18.148 43.0049 17.6186 42.7621 17.2815 42.5195L16.8002 43.2961C17.3298 43.6843 18.0519 43.8785 18.7738 43.8785C20.1218 43.8785 20.8921 43.2476 20.8921 42.3738C20.8921 41.5487 20.2663 41.1118 19.3034 40.9663L18.822 40.9176C18.3887 40.869 18.0519 40.7721 18.0519 40.4809C18.0519 40.1411 18.3887 39.947 18.9183 39.947C19.4961 39.947 20.0737 40.1895 20.3626 40.3352L20.7959 39.5101ZM47.6576 39.0247C47.0798 39.0247 46.6948 39.3159 46.454 39.7042V39.1218H45.4431V43.7814H46.454V41.1604C46.454 40.3839 46.791 39.947 47.4166 39.947C47.6094 39.947 47.8502 39.9956 48.0427 40.044L48.3315 39.0734C48.139 39.0247 47.8502 39.0247 47.6576 39.0247ZM34.7562 41.4516C34.7562 42.8592 35.7189 43.8785 37.2114 43.8785C37.8853 43.8785 38.3666 43.733 38.8479 43.3447L38.3666 42.5195C37.9815 42.8107 37.5965 42.9562 37.1631 42.9562C36.3448 42.9562 35.7672 42.3738 35.7672 41.4516C35.7672 40.578 36.3448 39.9954 37.1631 39.947C37.5965 39.947 37.9815 40.0925 38.3666 40.3839L38.8479 39.5587C38.3666 39.1702 37.8853 39.0247 37.2114 39.0247C35.7189 39.0247 34.7562 40.044 34.7562 41.4516ZM44.0953 41.4516V39.1218H43.0844V39.7042C42.7473 39.2675 42.266 39.0247 41.6401 39.0247C40.3404 39.0247 39.3295 40.044 39.3295 41.4516C39.3295 42.8592 40.3404 43.8785 41.6401 43.8785C42.314 43.8785 42.7956 43.6359 43.0844 43.199V43.7814H44.0953V41.4516ZM40.3884 41.4516C40.3884 40.6264 40.918 39.947 41.7844 39.947C42.6028 39.947 43.1806 40.578 43.1806 41.4516C43.1806 42.2768 42.6028 42.9562 41.7844 42.9562C40.918 42.9076 40.3884 42.2768 40.3884 41.4516ZM28.3056 39.0247C26.9577 39.0247 25.9948 39.9954 25.9948 41.4516C25.9948 42.9078 26.9574 43.8785 28.3537 43.8785C29.0275 43.8785 29.7016 43.6843 30.2312 43.2476L29.7496 42.5195C29.3646 42.8107 28.8832 43.0049 28.4019 43.0049C27.7761 43.0049 27.1502 42.7137 27.0057 41.8883H30.4237V41.5002C30.472 39.9954 29.6056 39.0247 28.3056 39.0247ZM28.3054 39.8983C28.931 39.8983 29.3646 40.2868 29.4606 41.0149H27.0537C27.15 40.3839 27.5833 39.8983 28.3054 39.8983ZM53.3859 41.4516V37.2773H52.375V39.7042C52.0379 39.2675 51.5566 39.0247 50.9308 39.0247C49.631 39.0247 48.6201 40.044 48.6201 41.4516C48.6201 42.8592 49.631 43.8785 50.9308 43.8785C51.6048 43.8785 52.0862 43.6359 52.375 43.199V43.7814H53.3859V41.4516ZM49.6793 41.4516C49.6793 40.6264 50.2086 39.947 51.0753 39.947C51.8936 39.947 52.4713 40.578 52.4713 41.4516C52.4713 42.2768 51.8936 42.9562 51.0753 42.9562C50.2086 42.9076 49.6793 42.2768 49.6793 41.4516ZM15.8853 41.4516V39.1218H14.8744V39.7042C14.5374 39.2675 14.056 39.0247 13.4302 39.0247C12.1305 39.0247 11.1195 40.044 11.1195 41.4516C11.1195 42.8592 12.1305 43.8785 13.4302 43.8785C14.1043 43.8785 14.5856 43.6359 14.8744 43.199V43.7814H15.8853V41.4516ZM12.1305 41.4516C12.1305 40.6264 12.66 39.947 13.5264 39.947C14.3448 39.947 14.9227 40.578 14.9227 41.4516C14.9227 42.2768 14.3448 42.9562 13.5264 42.9562C12.66 42.9076 12.1305 42.2768 12.1305 41.4516Z" fill="black"/>
<path d="M20.459 3.7373H35.6228V31.2099H20.459V3.7373Z" fill="#FF5F00"/>
<path d="M21.4221 17.4737C21.4221 11.8919 24.0215 6.94094 28.017 3.73735C25.0807 1.40756 21.3741 0 17.3304 0C7.75032 0 0 7.81453 0 17.4737C0 27.133 7.75032 34.9475 17.3302 34.9475C21.3739 34.9475 25.0805 33.5399 28.017 31.2099C24.0215 28.055 21.4221 23.0556 21.4221 17.4737Z" fill="#EB001B"/>
<path d="M56.0814 17.4737C56.0814 27.1327 48.3311 34.9475 38.7513 34.9475C34.7076 34.9475 31.0009 33.5399 28.0645 31.2099C32.1081 28.0066 34.6596 23.0556 34.6596 17.4737C34.6596 11.8919 32.0599 6.94094 28.0645 3.73735C31.0007 1.40756 34.7076 0 38.7513 0C48.3311 0 56.0814 7.86318 56.0814 17.4737Z" fill="#F79E1B"/>
</g>
<defs>
<clipPath id="clip0_133_33341">
<rect width="56.1379" height="44" fill="white"/>
</clipPath>
</defs>
</svg>
