<svg width="45" height="44" viewBox="0 0 45 44" fill="none" xmlns="http://www.w3.org/2000/svg">
<g clip-path="url(#clip0_133_33360)">
<path fill-rule="evenodd" clip-rule="evenodd" d="M41.1657 0H3.11164C1.47651 0 0.138672 1.33784 0.138672 2.97297V41.027C0.138672 42.6622 1.47651 44 3.11164 44H41.1657C42.8008 44 44.1387 42.6622 44.1387 41.027V2.97297C44.1387 1.33784 42.8008 0 41.1657 0Z" fill="#A50064"/>
<path d="M30.5812 20.662C34.0745 20.662 36.8988 17.8377 36.8988 14.3444C36.8988 10.8512 34.0745 8.02686 30.5812 8.02686C27.088 8.02686 24.2637 10.8512 24.2637 14.3444C24.2637 17.8377 27.088 20.662 30.5812 20.662ZM30.5812 11.6539C32.0677 11.6539 33.2718 12.8579 33.2718 14.3444C33.2718 15.8309 32.0677 17.035 30.5812 17.035C29.0948 17.035 27.8907 15.8309 27.8907 14.3444C27.8907 12.8579 29.0948 11.6539 30.5812 11.6539Z" fill="white"/>
<path d="M30.5812 23.397C27.088 23.397 24.2637 26.2213 24.2637 29.7145C24.2637 33.2078 27.088 36.0321 30.5812 36.0321C34.0745 36.0321 36.8988 33.2078 36.8988 29.7145C36.8988 26.2213 34.0745 23.397 30.5812 23.397ZM30.5812 32.4051C29.0948 32.4051 27.8907 31.201 27.8907 29.7145C27.8907 28.2281 29.0948 27.024 30.5812 27.024C32.0677 27.024 33.2718 28.2281 33.2718 29.7145C33.2718 31.201 32.0677 32.4051 30.5812 32.4051Z" fill="white"/>
<path d="M17.7093 23.397C16.6391 23.397 15.658 23.7537 14.8701 24.3483C14.0823 23.7537 13.0864 23.397 12.031 23.397C9.41474 23.397 7.28906 25.5226 7.28906 28.1389V36.047H10.9161V28.0943C10.9161 27.4997 11.3918 27.024 11.9864 27.024C12.581 27.024 13.0566 27.4997 13.0566 28.0943V36.0321H16.6837V28.0943C16.6837 27.4997 17.1593 27.024 17.7539 27.024C18.3485 27.024 18.8242 27.4997 18.8242 28.0943V36.0321H22.4364V28.124C22.4364 25.5226 20.3256 23.397 17.7093 23.397Z" fill="white"/>
<path d="M17.7086 8.02686C16.6383 8.02686 15.6572 8.38361 14.8694 8.97821C14.0815 8.38361 13.0856 8.02686 12.0302 8.02686C9.39911 8.02686 7.27344 10.1525 7.27344 12.7687V20.662H10.9005V12.7242C10.9005 12.1296 11.3761 11.6539 11.9707 11.6539C12.5653 11.6539 13.041 12.1296 13.041 12.7242V20.662H16.668V12.7242C16.668 12.1296 17.1437 11.6539 17.7383 11.6539C18.3329 11.6539 18.8086 12.1296 18.8086 12.7242V20.662H22.4356V12.7687C22.4356 10.1525 20.3248 8.02686 17.7086 8.02686Z" fill="white"/>
</g>
<defs>
<clipPath id="clip0_133_33360">
<rect width="44" height="44" fill="white" transform="translate(0.138672)"/>
</clipPath>
</defs>
</svg>
