<svg width="32" height="32" viewBox="0 0 32 32" fill="none" xmlns="http://www.w3.org/2000/svg">
<rect width="32" height="32" rx="16" fill="black"/>
<path d="M16.3528 8.01333C17.2324 8 18.1052 8.00667 18.9781 8C19.0318 9.01999 19.4011 10.06 20.1531 10.78C20.9051 11.52 21.966 11.86 23 11.9733V14.6599C22.0331 14.6266 21.0596 14.4266 20.18 14.0133C19.7973 13.8399 19.4414 13.6199 19.0923 13.3933C19.0855 15.3399 19.099 17.2865 19.0788 19.2265C19.0251 20.1598 18.7163 21.0865 18.1724 21.8532C17.2928 23.1331 15.7687 23.9665 14.2042 23.9931C13.2441 24.0465 12.2839 23.7865 11.4648 23.3065C10.1085 22.5132 9.15504 21.0598 9.01403 19.4999C9.00061 19.1665 8.99389 18.8332 9.00732 18.5065C9.12818 17.2399 9.75933 16.0266 10.7396 15.1999C11.8542 14.2399 13.4119 13.7799 14.8689 14.0533C14.8824 15.0399 14.8421 16.0266 14.8421 17.0132C14.1774 16.7999 13.3985 16.8599 12.8143 17.2599C12.3913 17.5332 12.0691 17.9532 11.9012 18.4265C11.7602 18.7665 11.8005 19.1399 11.8072 19.4999C11.9683 20.5932 13.0292 21.5132 14.1572 21.4132C14.9092 21.4065 15.6277 20.9732 16.0171 20.3398C16.1447 20.1198 16.2857 19.8932 16.2924 19.6332C16.3595 18.4399 16.3327 17.2532 16.3394 16.0599C16.3461 13.3733 16.3327 10.6933 16.3528 8.01333Z" fill="white"/>
</svg>
