<svg width="94" height="30" viewBox="0 0 94 30" fill="none" xmlns="http://www.w3.org/2000/svg">
<g clip-path="url(#clip0_133_33339)">
<path d="M48.6145 9.55217C48.5609 13.7146 52.383 16.0372 55.2621 17.4183C58.2201 18.8352 59.2138 19.7439 59.202 21.0111C59.18 22.9502 56.8425 23.8061 54.6551 23.8394C50.8389 23.8976 48.62 22.8252 46.8561 22.0141L45.4813 28.3463C47.2512 29.149 50.5283 29.8492 53.9266 29.8799C61.9038 29.8799 67.1226 26.0037 67.1509 19.994C67.1821 12.3668 56.4334 11.9446 56.5069 8.53543C56.5322 7.50169 57.5342 6.39856 59.73 6.11808C60.8169 5.97639 63.8172 5.86795 67.2188 7.40988L68.5539 1.28338C66.7246 0.627716 64.3735 -0.000116348 61.4463 -0.000116348C53.938 -0.000116348 48.6571 3.9288 48.6145 9.55217ZM81.3827 0.527594C79.9261 0.527594 78.6986 1.36398 78.1507 2.64747L66.7558 29.4299H74.7271L76.3133 25.1146H86.0541L86.9742 29.4299H94L87.8691 0.527594H81.3827ZM82.4979 8.33518L84.7983 19.1883H78.4981L82.4979 8.33518ZM38.9498 0.527954L32.6665 29.4295H40.2625L46.5429 0.527233L38.9498 0.527954ZM27.7127 0.527954L19.8065 20.1996L16.6083 3.47302C16.233 1.60579 14.751 0.527594 13.1053 0.527594H0.181023L0 1.36687C2.6533 1.93362 5.66791 2.84771 7.4943 3.82579C8.61202 4.42326 8.93073 4.94555 9.29792 6.3653L15.3554 29.4299H23.3825L35.6892 0.527594L27.7127 0.527954Z" fill="url(#paint0_linear_133_33339)"/>
</g>
<defs>
<linearGradient id="paint0_linear_133_33339" x1="4321.56" y1="89.8192" x2="4406.7" y2="-2978.98" gradientUnits="userSpaceOnUse">
<stop stop-color="#222357"/>
<stop offset="1" stop-color="#254AA5"/>
</linearGradient>
<clipPath id="clip0_133_33339">
<rect width="94" height="30" fill="white"/>
</clipPath>
</defs>
</svg>
