<svg width="32" height="32" viewBox="0 0 32 32" fill="none" xmlns="http://www.w3.org/2000/svg">
<rect width="32" height="32" rx="16" fill="#FF0000"/>
<path d="M23.6469 11.8791C23.5551 11.5159 23.3761 11.1848 23.1277 10.9187C22.8792 10.6527 22.57 10.4609 22.2309 10.3626C20.9892 10 15.992 10 15.992 10C15.992 10 10.9946 10.011 9.75292 10.3736C9.41375 10.4719 9.10456 10.6637 8.85612 10.9297C8.60767 11.1958 8.42866 11.527 8.33689 11.8902C7.96132 14.2528 7.81563 17.8528 8.34721 20.1209C8.43898 20.4841 8.618 20.8152 8.86644 21.0813C9.11488 21.3473 9.42407 21.5391 9.76323 21.6374C11.0049 22 16.0022 22 16.0022 22C16.0022 22 20.9995 22 22.2411 21.6374C22.5802 21.5391 22.8894 21.3473 23.1379 21.0813C23.3863 20.8152 23.5654 20.4841 23.6572 20.1209C24.0533 17.7549 24.1753 14.1571 23.6469 11.8791Z" fill="white"/>
<path d="M14 19L19 16L14 13V19Z" fill="#FF0000"/>
</svg>
