<svg width="32" height="32" viewBox="0 0 32 32" fill="none" xmlns="http://www.w3.org/2000/svg">
<rect x="0.5" y="0.5" width="31" height="31" rx="15.5" fill="white"/>
<rect x="0.5" y="0.5" width="31" height="31" rx="15.5" stroke="#406CE5"/>
<path d="M16.3675 14.7682V14.4476H17.3778V18.9516H16.8003C16.6859 18.9517 16.5762 18.9089 16.4951 18.8324C16.414 18.7559 16.3681 18.6519 16.3675 18.5433C15.9459 18.8367 15.4366 18.9952 14.914 18.9943C14.261 18.9943 13.6348 18.748 13.1729 18.3096C12.7111 17.8711 12.4514 17.2764 12.451 16.6561C12.4514 16.0359 12.7111 15.4412 13.1729 15.0027C13.6348 14.5643 14.261 14.318 14.914 14.318C15.4364 14.3173 15.9461 14.475 16.3675 14.7682ZM12.1892 13V13.146C12.1892 13.4182 12.151 13.6405 11.9643 13.9012L11.9418 13.9254C11.8796 13.9918 11.8191 14.0595 11.7603 14.1285L8.518 17.9941H12.1892V18.5412C12.1892 18.5951 12.1781 18.6486 12.1563 18.6984C12.1345 18.7482 12.1026 18.7935 12.0625 18.8316C12.0223 18.8697 11.9745 18.8999 11.922 18.9205C11.8696 18.9411 11.8133 18.9516 11.7565 18.9516H7V18.6937C7 18.3781 7.0825 18.237 7.1875 18.0902L10.6435 14.0259H7.144V13H12.1892ZM18.6025 18.9516C18.507 18.9516 18.4155 18.9155 18.3479 18.8514C18.2804 18.7873 18.2425 18.7003 18.2425 18.6096V13H19.3232V18.9516H18.6025ZM22.5198 14.2895C22.8454 14.2894 23.1678 14.3502 23.4687 14.4685C23.7695 14.5868 24.0429 14.7602 24.2732 14.9788C24.5036 15.1975 24.6863 15.457 24.811 15.7428C24.9357 16.0285 24.9999 16.3347 25 16.644C25.0001 16.9533 24.9361 17.2596 24.8115 17.5454C24.687 17.8312 24.5045 18.0909 24.2743 18.3097C24.0441 18.5284 23.7708 18.702 23.4701 18.8204C23.1693 18.9389 22.8469 18.9999 22.5212 19C21.8636 19.0002 21.2329 18.7522 20.7678 18.3107C20.3026 17.8691 20.0412 17.2701 20.041 16.6455C20.0408 16.0208 20.3018 15.4217 20.7667 14.9798C21.2316 14.538 21.8621 14.2897 22.5198 14.2895ZM14.9148 18.0318C15.1078 18.036 15.2997 18.0035 15.4793 17.9362C15.6589 17.8689 15.8225 17.7682 15.9606 17.64C16.0986 17.5119 16.2083 17.3588 16.2832 17.1897C16.3581 17.0207 16.3967 16.8392 16.3967 16.6558C16.3967 16.4724 16.3581 16.2909 16.2832 16.1218C16.2083 15.9528 16.0986 15.7997 15.9606 15.6715C15.8225 15.5433 15.6589 15.4426 15.4793 15.3754C15.2997 15.3081 15.1078 15.2756 14.9148 15.2797C14.5363 15.2879 14.1762 15.4365 13.9115 15.6937C13.6469 15.9508 13.4987 16.2962 13.4987 16.6558C13.4987 17.0154 13.6469 17.3607 13.9115 17.6179C14.1762 17.8751 14.5363 18.0236 14.9148 18.0318ZM22.5198 18.0297C22.9066 18.0297 23.2777 17.8837 23.5512 17.6238C23.8248 17.364 23.9785 17.0115 23.9785 16.644C23.9785 16.2765 23.8248 15.9241 23.5512 15.6642C23.2777 15.4044 22.9066 15.2584 22.5198 15.2584C22.1329 15.2584 21.7618 15.4044 21.4883 15.6642C21.2147 15.9241 21.061 16.2765 21.061 16.644C21.061 17.0115 21.2147 17.364 21.4883 17.6238C21.7618 17.8837 22.1329 18.0297 22.5198 18.0297Z" fill="#406CE5"/>
</svg>
