<svg width="45" height="44" viewBox="0 0 45 44" fill="none" xmlns="http://www.w3.org/2000/svg">
<g clip-path="url(#clip0_133_33346)">
<path d="M8.33878 7.21847L40.595 2.50289C38.7929 0.943116 36.4465 0 33.8825 0H10.3949C4.72251 0 0.138672 4.59467 0.138672 10.2534V33.7345C0.138672 38.825 3.8517 43.0569 8.71371 43.8549L4.45643 12.454C4.09359 9.93899 5.8594 7.5812 8.33878 7.21847Z" fill="#118ACB"/>
<path d="M40.594 2.50293L8.33786 7.21851C5.85847 7.58125 4.09267 9.93904 4.4555 12.454L8.71279 43.8549C9.25704 43.9396 9.82549 44 10.3939 44H33.8816C39.5539 44 44.1377 39.4054 44.1377 33.7467V10.2534C44.1377 7.15806 42.7711 4.38916 40.594 2.50293Z" fill="white"/>
<path d="M40.5949 2.50293L40.486 2.52711C42.6994 4.46171 44.0298 7.31524 44.0298 10.2534V33.6983C44.0298 39.3086 39.458 43.8791 33.8461 43.8791H10.3827C9.85053 43.8791 9.23371 43.8187 8.68945 43.734L8.70155 43.8549C9.26999 43.9517 9.81425 44 10.3706 44H33.8219C39.5064 44 44.1265 39.3812 44.1265 33.6983V10.2534C44.1386 7.25479 42.8566 4.46171 40.5949 2.50293Z" fill="#B3B3B3"/>
<path d="M27.5441 14.6062C27.3385 14.4006 27.1087 14.2918 26.7821 14.2918C26.3467 14.2918 26.0201 14.4974 25.8266 14.9326C25.3912 14.4127 24.7865 14.1709 24.0245 14.1709C23.1054 14.1709 22.3434 14.5336 21.7024 15.2107C21.0614 15.9362 20.7832 16.7705 20.7832 17.7741C20.7832 18.7777 21.0977 19.6482 21.7024 20.3374C22.3434 21.0629 23.1054 21.3773 24.0245 21.3773C24.7865 21.3773 25.3791 21.1354 25.8266 20.6155C26.0322 21.0508 26.3467 21.2564 26.7821 21.2564C27.0966 21.2564 27.3385 21.1354 27.5441 20.942C27.7497 20.7485 27.8222 20.5067 27.8222 20.1802V15.2591C27.8585 15.0898 27.7376 14.8117 27.5441 14.6062ZM25.3791 19.0437C25.1372 19.358 24.7744 19.5273 24.339 19.5273C23.9036 19.5273 23.5408 19.3701 23.2989 19.0437C23.057 18.7293 22.8998 18.3182 22.8998 17.7983C22.8998 17.3146 23.0207 16.9156 23.2989 16.6012C23.5408 16.2869 23.9036 16.1176 24.339 16.1176C24.7744 16.1176 25.1372 16.2748 25.3791 16.6012C25.621 16.9156 25.7783 17.3267 25.7783 17.7983C25.742 18.2819 25.621 18.7293 25.3791 19.0437Z" fill="#118ACB"/>
<path d="M30.2162 21.0026C30.0105 21.2081 29.7807 21.317 29.4542 21.317C29.1276 21.317 28.8978 21.1961 28.6922 21.0026C28.4866 20.797 28.4141 20.5673 28.4141 20.2408V11.4384C28.4141 11.1603 28.4987 10.9185 28.6922 10.6767C28.8978 10.4711 29.1276 10.3623 29.4542 10.3623C29.7807 10.3623 30.0105 10.4832 30.2162 10.6767C30.4218 10.8822 30.4943 11.112 30.4943 11.4384V20.2408C30.4943 20.5673 30.4218 20.8091 30.2162 21.0026Z" fill="#118ACB"/>
<path d="M37.1358 15.2474C36.4586 14.5219 35.6119 14.2075 34.5718 14.2075C33.5317 14.2075 32.6971 14.5703 32.0078 15.2474C31.3667 15.9245 31.0039 16.8071 31.0039 17.847C31.0039 18.8868 31.3184 19.7211 32.0078 20.4466C32.6488 21.1237 33.5317 21.4864 34.5718 21.4864C35.6119 21.4864 36.4465 21.1237 37.1358 20.4466C37.7769 19.7695 38.0913 18.8868 38.0913 17.8833C38.1397 16.8071 37.8252 15.9245 37.1358 15.2474ZM35.6603 19.044C35.4184 19.3584 35.0556 19.5277 34.6202 19.5277C34.1848 19.5277 33.8219 19.3705 33.58 19.044C33.3382 18.7296 33.1809 18.3185 33.1809 17.7986C33.1809 17.315 33.3019 16.916 33.58 16.6016C33.8219 16.2872 34.1848 16.1179 34.6202 16.1179C35.0556 16.1179 35.4184 16.2751 35.6603 16.6016C35.9022 16.916 36.0594 17.3271 36.0594 17.7986C36.0231 18.2823 35.9022 18.7296 35.6603 19.044Z" fill="#118ACB"/>
<path d="M19.6221 14.449C20.3478 13.4938 20.7469 12.8529 20.7469 12.5265C20.7469 11.7647 20.2631 11.3657 19.3077 11.3657H14.2279C13.8288 11.3657 13.5023 11.4504 13.3088 11.6438C13.1031 11.8494 12.9943 12.0791 12.9943 12.3693C12.9943 12.6837 13.1152 12.9255 13.3088 13.0948C13.5144 13.3003 13.8288 13.3729 14.2279 13.3729H17.7112L13.2362 19.1283C12.958 19.491 12.8008 19.8538 12.8008 20.1319C12.8008 20.9662 13.3571 21.3773 14.4819 21.3773H19.7189C20.5534 21.3773 20.9646 21.0145 20.9646 20.3374C20.9646 19.6119 20.5655 19.2976 19.7189 19.2976H15.8728L19.6221 14.449Z" fill="#118ACB"/>
<path d="M17.1308 26.8911H15.8125V29.6116H17.1308C17.5299 29.6116 17.8565 29.4907 18.0863 29.2126C18.3282 28.9708 18.4491 28.6081 18.4491 28.2574C18.4491 27.8584 18.3282 27.5319 18.0863 27.3022C17.8565 27.012 17.542 26.8911 17.1308 26.8911Z" fill="#39B54A"/>
<path d="M23.6621 29.4062C23.2629 29.4062 22.9364 29.5634 22.7066 29.8415C22.4647 30.1559 22.3438 30.5186 22.3438 30.966C22.3438 31.4134 22.4647 31.8003 22.7066 32.0905C22.9485 32.4049 23.2629 32.5258 23.6621 32.5258C24.0612 32.5258 24.3877 32.3686 24.6175 32.0905C24.8594 31.7761 24.9804 31.4134 24.9804 30.966C24.9804 30.5186 24.8594 30.1317 24.6175 29.8415C24.3756 29.5634 24.0612 29.4062 23.6621 29.4062Z" fill="#39B54A"/>
<path d="M32.8664 23.0098H13.9384C13.2974 23.0098 12.7773 23.5297 12.7773 24.1705V35.2461C12.7773 35.8869 13.2974 36.4069 13.9384 36.4069H28.8631C28.7059 36.2497 28.6212 36.0925 28.6212 35.8869C28.6212 35.7297 28.6575 35.5726 28.7422 35.367L29.4678 33.8072L27.5085 28.9224C27.4722 28.8015 27.4239 28.6443 27.4239 28.4871C27.4239 28.2815 27.5085 28.0881 27.702 27.9672C27.8593 27.81 28.0649 27.7253 28.2584 27.7253C28.6938 27.7253 28.9841 27.9309 29.1413 28.3662L30.3386 31.6913L31.6207 28.3662C31.7779 27.9672 32.0561 27.7253 32.5036 27.7253C32.7092 27.7253 32.9027 27.81 33.0599 27.9672C33.2171 28.1244 33.3381 28.2815 33.3381 28.4871C33.3381 28.6443 33.3018 28.8015 33.2534 28.9224L30.3749 35.9232C30.2903 36.1288 30.2177 36.2859 30.0968 36.4069H32.8543C33.4953 36.4069 34.0154 35.8869 34.0154 35.2461V24.1705C34.0154 23.4934 33.4953 23.0098 32.8664 23.0098ZM19.5019 30.4459C18.8972 31.0021 18.1473 31.2439 17.2644 31.2439H15.8252V33.3236C15.8252 33.638 15.7405 33.8798 15.547 34.0491C15.3898 34.2062 15.1479 34.3272 14.8697 34.3272C14.5915 34.3272 14.3496 34.2425 14.1924 34.0491C14.0352 33.8919 13.9142 33.6138 13.9142 33.3236V26.1293C13.9142 25.4522 14.2287 25.1257 14.9181 25.1257H17.204C18.1594 25.1257 18.9214 25.4038 19.5624 25.96C20.1671 26.5162 20.4816 27.278 20.4816 28.1606C20.4574 29.1642 20.1429 29.8897 19.5019 30.4459ZM26.9038 33.2873C26.9038 33.5654 26.8191 33.771 26.6256 33.9644C26.42 34.17 26.2265 34.2425 25.9483 34.2425C25.5492 34.2425 25.2226 34.037 25.0291 33.638C24.63 34.1216 24.0737 34.3634 23.348 34.3634C22.5135 34.3634 21.7878 34.0491 21.2314 33.4082C20.6751 32.7674 20.3485 31.9694 20.3485 31.0142C20.3485 30.059 20.6267 29.2972 21.2314 28.6201C21.7878 27.9793 22.5135 27.6649 23.348 27.6649C24.0737 27.6649 24.5937 27.9067 25.0291 28.3904C25.2347 27.9914 25.5129 27.7858 25.9483 27.7858C26.2265 27.7858 26.4684 27.8704 26.6256 28.0639C26.8312 28.2695 26.9038 28.4629 26.9038 28.741V33.2873Z" fill="#39B54A"/>
</g>
<defs>
<clipPath id="clip0_133_33346">
<rect width="44" height="44" fill="white" transform="translate(0.138672)"/>
</clipPath>
</defs>
</svg>
