<svg width="26" height="26" viewBox="0 0 26 26" fill="none" xmlns="http://www.w3.org/2000/svg">
<path d="M23.5911 19.5934C23.5911 19.9684 23.5078 20.3538 23.3307 20.7288C23.1536 21.1038 22.9245 21.458 22.6224 21.7913C22.112 22.3538 21.5495 22.7601 20.9141 23.0205C20.2891 23.2809 19.612 23.4163 18.8828 23.4163C17.8203 23.4163 16.6849 23.1663 15.487 22.6559C14.2891 22.1455 13.0911 21.458 11.9036 20.5934C10.7057 19.7184 9.57031 18.7497 8.48698 17.6768C7.41406 16.5934 6.44531 15.458 5.58073 14.2705C4.72656 13.083 4.03906 11.8955 3.53906 10.7184C3.03906 9.53093 2.78906 8.39551 2.78906 7.31217C2.78906 6.60384 2.91406 5.92676 3.16406 5.30176C3.41406 4.66634 3.8099 4.08301 4.36198 3.56217C5.02865 2.90592 5.75781 2.58301 6.52865 2.58301C6.82031 2.58301 7.11198 2.64551 7.3724 2.77051C7.64323 2.89551 7.88281 3.08301 8.07031 3.35384L10.487 6.76009C10.6745 7.02051 10.8099 7.26009 10.9036 7.48926C10.9974 7.70801 11.0495 7.92676 11.0495 8.12468C11.0495 8.37468 10.9766 8.62467 10.8307 8.86426C10.6953 9.10384 10.4974 9.35384 10.2474 9.60384L9.45573 10.4268C9.34115 10.5413 9.28906 10.6768 9.28906 10.8434C9.28906 10.9268 9.29948 10.9997 9.32031 11.083C9.35156 11.1663 9.38281 11.2288 9.40365 11.2913C9.59115 11.6351 9.91406 12.083 10.3724 12.6247C10.8411 13.1663 11.3411 13.7184 11.8828 14.2705C12.4453 14.8226 12.987 15.333 13.5391 15.8018C14.0807 16.2601 14.5286 16.5726 14.8828 16.7601C14.9349 16.7809 14.9974 16.8122 15.0703 16.8434C15.1536 16.8747 15.237 16.8851 15.3307 16.8851C15.5078 16.8851 15.6432 16.8226 15.7578 16.708L16.5495 15.9268C16.8099 15.6663 17.0599 15.4684 17.2995 15.3434C17.5391 15.1976 17.7786 15.1247 18.0391 15.1247C18.237 15.1247 18.4453 15.1663 18.6745 15.2601C18.9036 15.3538 19.1432 15.4893 19.4036 15.6663L22.8516 18.1143C23.1224 18.3018 23.3099 18.5205 23.4245 18.7809C23.5286 19.0413 23.5911 19.3018 23.5911 19.5934Z" fill="white"/>
</svg>
