<svg width="26" height="26" viewBox="0 0 26 26" fill="none" xmlns="http://www.w3.org/2000/svg">
<g clip-path="url(#clip0_228_3570)">
<path fill-rule="evenodd" clip-rule="evenodd" d="M19.5596 2.84375C20.4225 2.84375 21.1221 3.54331 21.1221 4.40625V21.5938C21.1221 22.4567 20.4225 23.1562 19.5596 23.1562H7.05957C6.19663 23.1562 5.49707 22.4567 5.49707 21.5938L5.49707 4.40625C5.49707 3.54331 6.19663 2.84375 7.05957 2.84375L19.5596 2.84375ZM19.5596 21.5938V4.40625L7.05957 4.40625L7.05957 21.5938H19.5596Z" fill="white"/>
<mask id="mask0_228_3570" style="mask-type:alpha" maskUnits="userSpaceOnUse" x="6" y="3" width="15" height="20">
<path d="M20.3408 21.5938V4.40625C20.3408 3.97478 19.991 3.625 19.5596 3.625L7.05957 3.625C6.6281 3.625 6.27832 3.97478 6.27832 4.40625L6.27832 21.5938C6.27832 22.0252 6.6281 22.375 7.05957 22.375H19.5596C19.991 22.375 20.3408 22.0252 20.3408 21.5938Z" fill="white"/>
</mask>
<g mask="url(#mask0_228_3570)">
<path fill-rule="evenodd" clip-rule="evenodd" d="M9.40332 7.53125C9.40332 7.09978 9.7531 6.75 10.1846 6.75H16.4346C16.866 6.75 17.2158 7.09978 17.2158 7.53125C17.2158 7.96272 16.866 8.3125 16.4346 8.3125H10.1846C9.7531 8.3125 9.40332 7.96272 9.40332 7.53125Z" fill="white"/>
<path fill-rule="evenodd" clip-rule="evenodd" d="M9.40332 10.6562C9.40332 10.2248 9.7531 9.875 10.1846 9.875H16.4346C16.866 9.875 17.2158 10.2248 17.2158 10.6562C17.2158 11.0877 16.866 11.4375 16.4346 11.4375H10.1846C9.7531 11.4375 9.40332 11.0877 9.40332 10.6562Z" fill="white"/>
<path d="M13.3096 19.25C13.9568 19.25 14.4814 18.7253 14.4814 18.0781C14.4814 17.4309 13.9568 16.9062 13.3096 16.9062C12.6624 16.9062 12.1377 17.4309 12.1377 18.0781C12.1377 18.7253 12.6624 19.25 13.3096 19.25Z" fill="white"/>
</g>
</g>
<defs>
<clipPath id="clip0_228_3570">
<rect width="25" height="25" fill="white" transform="translate(0.80957 0.5)"/>
</clipPath>
</defs>
</svg>
