<svg width="26" height="26" viewBox="0 0 26 26" fill="none" xmlns="http://www.w3.org/2000/svg">
<path opacity="0.2" d="M3.22754 20.0312C3.64194 20.0312 4.03937 19.8666 4.33239 19.5736C4.62542 19.2806 4.79004 18.8832 4.79004 18.4688V6.75C4.79004 6.5428 4.87235 6.34409 5.01886 6.19757C5.16537 6.05106 5.36409 5.96875 5.57129 5.96875H21.1963C21.4035 5.96875 21.6022 6.05106 21.7487 6.19757C21.8952 6.34409 21.9775 6.5428 21.9775 6.75V18.4688C21.9775 18.8832 21.8129 19.2806 21.5199 19.5736C21.2269 19.8666 20.8294 20.0312 20.415 20.0312H3.22754Z" fill="white"/>
<path d="M9.47754 11.4375H17.29" stroke="white" stroke-width="1.5" stroke-linecap="round" stroke-linejoin="round"/>
<path d="M9.47754 14.5625H17.29" stroke="white" stroke-width="1.5" stroke-linecap="round" stroke-linejoin="round"/>
<path d="M3.22754 20.0312C3.64194 20.0312 4.03937 19.8666 4.33239 19.5736C4.62542 19.2806 4.79004 18.8832 4.79004 18.4688V6.75C4.79004 6.5428 4.87235 6.34409 5.01886 6.19757C5.16537 6.05106 5.36409 5.96875 5.57129 5.96875H21.1963C21.4035 5.96875 21.6022 6.05106 21.7487 6.19757C21.8952 6.34409 21.9775 6.5428 21.9775 6.75V18.4688C21.9775 18.8832 21.8129 19.2806 21.5199 19.5736C21.2269 19.8666 20.8294 20.0312 20.415 20.0312H3.22754Z" stroke="white" stroke-width="1.5" stroke-linecap="round" stroke-linejoin="round"/>
<path d="M3.22754 20.0312C2.81314 20.0312 2.41571 19.8666 2.12268 19.5736C1.82966 19.2806 1.66504 18.8832 1.66504 18.4688V9.09375" stroke="white" stroke-width="1.5" stroke-linecap="round" stroke-linejoin="round"/>
</svg>
