<svg width="26" height="26" viewBox="0 0 26 26" fill="none" xmlns="http://www.w3.org/2000/svg">
<path d="M22.1934 6.24902C22.12 6.16127 22.0283 6.09068 21.9247 6.04225C21.8211 5.99382 21.7081 5.96873 21.5938 5.96875H5.83984L5.3623 3.3457C5.2969 2.98568 5.10721 2.66003 4.82631 2.42553C4.54541 2.19103 4.19111 2.06255 3.8252 2.0625H2.0625C1.8553 2.0625 1.65659 2.14481 1.51007 2.29132C1.36356 2.43784 1.28125 2.63655 1.28125 2.84375C1.28125 3.05095 1.36356 3.24966 1.51007 3.39618C1.65659 3.54269 1.8553 3.625 2.0625 3.625H3.82031L6.31641 17.3252C6.38993 17.7315 6.56949 18.1112 6.83691 18.4258C6.46782 18.7705 6.20142 19.2108 6.06724 19.6977C5.93307 20.1846 5.93638 20.6991 6.07679 21.1843C6.2172 21.6694 6.48923 22.1062 6.86272 22.4462C7.23621 22.7861 7.69656 23.016 8.19273 23.1103C8.6889 23.2047 9.2015 23.1597 9.67368 22.9805C10.1459 22.8013 10.5592 22.4948 10.8678 22.095C11.1764 21.6952 11.3683 21.2178 11.4222 20.7156C11.476 20.2134 11.3897 19.7061 11.1729 19.25H15.6084C15.4336 19.6159 15.3432 20.0164 15.3438 20.4219C15.3438 20.9627 15.5041 21.4913 15.8046 21.941C16.105 22.3907 16.5321 22.7411 17.0317 22.9481C17.5314 23.1551 18.0812 23.2092 18.6116 23.1037C19.142 22.9982 19.6292 22.7378 20.0116 22.3554C20.394 21.973 20.6545 21.4857 20.76 20.9553C20.8655 20.4249 20.8113 19.8751 20.6044 19.3755C20.3974 18.8758 20.0469 18.4488 19.5973 18.1483C19.1476 17.8479 18.6189 17.6875 18.0781 17.6875H8.62207C8.43911 17.6875 8.26197 17.6232 8.12151 17.506C7.98106 17.3887 7.88622 17.2259 7.85352 17.0459L7.54394 15.3438H18.8721C19.4209 15.3437 19.9524 15.151 20.3737 14.7992C20.7951 14.4475 21.0796 13.959 21.1777 13.4189L22.3652 6.88965C22.3853 6.7768 22.3804 6.6609 22.3507 6.55019C22.321 6.43948 22.2673 6.33666 22.1934 6.24902ZM9.875 20.4219C9.875 20.6537 9.80627 20.8802 9.6775 21.0729C9.54874 21.2656 9.36571 21.4158 9.15158 21.5045C8.93745 21.5932 8.70182 21.6164 8.4745 21.5712C8.24718 21.526 8.03837 21.4144 7.87448 21.2505C7.71059 21.0866 7.59898 20.8778 7.55377 20.6505C7.50855 20.4232 7.53176 20.1876 7.62045 19.9734C7.70915 19.7593 7.85935 19.5763 8.05207 19.4475C8.24478 19.3187 8.47135 19.25 8.70312 19.25C9.01393 19.25 9.312 19.3735 9.53177 19.5932C9.75154 19.813 9.875 20.1111 9.875 20.4219ZM19.25 20.4219C19.25 20.6537 19.1813 20.8802 19.0525 21.0729C18.9237 21.2656 18.7407 21.4158 18.5266 21.5045C18.3124 21.5932 18.0768 21.6164 17.8495 21.5712C17.6222 21.526 17.4134 21.4144 17.2495 21.2505C17.0856 21.0866 16.974 20.8778 16.9288 20.6505C16.8835 20.4232 16.9068 20.1876 16.9955 19.9734C17.0842 19.7593 17.2344 19.5763 17.4271 19.4475C17.6198 19.3187 17.8463 19.25 18.0781 19.25C18.3889 19.25 18.687 19.3735 18.9068 19.5932C19.1265 19.813 19.25 20.1111 19.25 20.4219Z" fill="white"/>
</svg>
